# xmcd
# 
# Track frame offsets:
#     150
#     12898
#     23454
#     31287
#     40195
#     51971
#     65109
#     74006
#     86006
#     97712
#     107843
#     118254
#     127849
#     137658
#     148516
#     158440
#     170276
#     181200
#     194933
#     206567
# 
# Disc length: 2912
# 
# Revision: 1
# Processed by: cddbd v1.5.2PL0 Copyright (c) Steve Scherf et al.
# Submitted via: fre:ac v1.1beta1pre5
# 
DISCID=150b5e14
DTITLE=Various Artist - The Ultimate Doo-Wop Collection [CD3)
DYEAR=2016
DGENRE=Doo-Wop
TTITLE0=Crests - Sixteen Candles
TTITLE1=Cadillacs - Speedo
TTITLE2=Tokens - Tonight I Fell In Love
TTITLE3=Dories - Stompin' Sh-Boom
TTITLE4=Dion and The Belmonts - In The Still Of The Night
TTITLE5=Cleftones - Can't We Be Sweethearts
TTITLE6=Marcels - Teeter Totter Love
TTITLE7=Penguins - Be Mine Or Be A Fool
TTITLE8=Curtis Lee - Beverly Jean
TTITLE9=Danleers - One Summer Night
TTITLE10=Dino and The Diplomats - I Can't Believe
TTITLE11=Titans - Love Is A Wonderful Thing
TTITLE12=Five Satins - Do You Remember
TTITLE13=Charts - Zoop
TTITLE14=Mellodeers - The Letter
TTITLE15=Dovells - Your Last Chance
TTITLE16=Drifters - Fools Fall In Love
TTITLE17=Cufflinx - It's Too Late Now
TTITLE18=Duprees - As Time Goes By
TTITLE19=Nino and The Ebb Tides - Juke Box Saturday Night
EXTD=
EXTT0=
EXTT1=
EXTT2=
EXTT3=
EXTT4=
EXTT5=
EXTT6=
EXTT7=
EXTT8=
EXTT9=
EXTT10=
EXTT11=
EXTT12=
EXTT13=
EXTT14=
EXTT15=
EXTT16=
EXTT17=
EXTT18=
EXTT19=
PLAYORDER=
